<mxfile host="app.diagrams.net" modified="2023-03-02T07:22:18.096Z" agent="5.0 (X11; Linux x86_64) AppleWebKit/537.36 (KHTML, like Gecko) Chrome/110.0.0.0 Safari/537.36" etag="2vRXotjrOw7kz1KOwYjA" version="20.8.23" type="github">
  <diagram name="페이지-1" id="FYMbsET_8FfdM5r1D9na">
    <mxGraphModel dx="2074" dy="1135" grid="1" gridSize="10" guides="1" tooltips="1" connect="1" arrows="1" fold="1" page="1" pageScale="1" pageWidth="827" pageHeight="1169" math="0" shadow="0">
      <root>
        <mxCell id="0" />
        <mxCell id="1" parent="0" />
      </root>
    </mxGraphModel>
  </diagram>
</mxfile>
